<?xml version="1.0"?>
<svg width="15.0cm" height="11.25cm"
     viewBox="0 0 15.0 11.25"
     xmlns="http://www.w3.org/2000/svg">

  <path id="frame" d="M 15.0 1.25
L 15.0 11.25
L 0 11.25
L 0 1.25
L 2.5 1.25
A 0.25 0.25 0 0 0 2.75 1.0
A 1.0 1.0 0 0 1 4.75 1.0
A 0.25 0.25 0 0 0 5.0 1.25
L 10.0 1.25
A 0.25 0.25 0 0 0 10.25 1.0
A 1.0 1.0 0 0 1 12.25 1.0
A 0.25 0.25 0 0 0 12.5 1.25
L 15.0 1.25
Z
M 3.75 0.75
A 0.25 0.25 0 1 0 3.75 1.25
A 0.25 0.25 0 1 0 3.75 0.75
Z
M 11.25 0.75
A 0.25 0.25 0 1 0 11.25 1.25
A 0.25 0.25 0 1 0 11.25 0.75
Z" fill="grey" />
</svg>

