<?xml version="1.0"?>
<svg width="15.0cm" height="11.25cm"
     viewBox="0 0 15.0 11.25"
     xmlns="http://www.w3.org/2000/svg">

  <path id="frame" d="M 15.0 1.25
L 15.0 11.25
L 0 11.25
L 0 1.25
L 0.0 1.25
L 0.0 1.0
A 1.0 1.0 0 0 1 2.0 1.0
A 0.25 0.25 0 0 0 2.25 1.25
L 12.75 1.25
A 0.25 0.25 0 0 0 13.0 1.0
A 1.0 1.0 0 0 1 15.0 1.0
L 15.0 1.25
L 15.0 1.25
Z
M 1.0 0.75
A 0.25 0.25 0 1 0 1.0 1.25
A 0.25 0.25 0 1 0 1.0 0.75
Z
M 14.0 0.75
A 0.25 0.25 0 1 0 14.0 1.25
A 0.25 0.25 0 1 0 14.0 0.75
Z" fill="grey" />
</svg>

